<svg width="109" height="108" viewBox="0 0 109 108" fill="none" xmlns="http://www.w3.org/2000/svg">
<path d="M75.5 27H35.5C30.5294 27 26.5 31.0294 26.5 36V60C26.5 64.9706 30.5294 69 35.5 69H75.5C80.4706 69 84.5 64.9706 84.5 60V36C84.5 31.0294 80.4706 27 75.5 27Z" fill="url(#paint0_linear_223_2)"/>
<path d="M71.5 35H36.5C35.3954 35 34.5 35.8954 34.5 37C34.5 38.1046 35.3954 39 36.5 39H71.5C72.6046 39 73.5 38.1046 73.5 37C73.5 35.8954 72.6046 35 71.5 35Z" fill="#C7D5F4"/>
<path d="M60.5 42H36.5C35.3954 42 34.5 42.8954 34.5 44C34.5 45.1046 35.3954 46 36.5 46H60.5C61.6046 46 62.5 45.1046 62.5 44C62.5 42.8954 61.6046 42 60.5 42Z" fill="#C7D5F4"/>
<path d="M64.5 49H36.5C35.3954 49 34.5 49.8954 34.5 51C34.5 52.1046 35.3954 53 36.5 53H64.5C65.6046 53 66.5 52.1046 66.5 51C66.5 49.8954 65.6046 49 64.5 49Z" fill="#C7D5F4"/>
<path d="M76 57H68C66.6193 57 65.5 58.1193 65.5 59.5C65.5 60.8807 66.6193 62 68 62H76C77.3807 62 78.5 60.8807 78.5 59.5C78.5 58.1193 77.3807 57 76 57Z" fill="#5D79DF"/>
<path d="M26.5 50.661V35C26.5 30.5817 30.0817 27 34.5 27H76.5C80.9183 27 84.5 30.5817 84.5 35V64" stroke="#E5E7EB" stroke-width="1.5" stroke-linecap="round"/>
<path d="M42.5 71C42.5 62.1634 35.3366 55 26.5 55C17.6634 55 10.5 62.1634 10.5 71C10.5 79.8366 17.6634 87 26.5 87C35.3366 87 42.5 79.8366 42.5 71Z" fill="#5D79DF" stroke="#F3F4F6" stroke-width="2.5"/>
<path d="M24.3668 76.3326V73.5993L25.6335 73.7326C26.0023 73.7121 26.3512 73.5592 26.6163 73.302C26.8813 73.0448 27.0446 72.7006 27.0762 72.3326V68.5326C27.0806 67.5722 26.7033 66.6493 26.0273 65.9671C25.3513 65.2848 24.4319 64.899 23.4715 64.8946C22.5111 64.8902 21.5882 65.2675 20.9059 65.9435C20.2237 66.6195 19.8379 67.5388 19.8335 68.4993C19.8335 70.3659 20.2708 70.5353 20.5002 71.5326C20.6552 72.1349 20.6618 72.7658 20.5195 73.3713L19.8335 76.3326" stroke="white" stroke-width="1.33333" stroke-linecap="round" stroke-linejoin="round"/>
<path d="M31.7002 74.8655C32.6374 73.9282 33.1641 72.6571 33.1645 71.3316C33.1648 70.0061 32.6389 68.7347 31.7022 67.7969" stroke="white" stroke-width="1.33333" stroke-linecap="round" stroke-linejoin="round"/>
<path d="M29.8331 73.0003C30.0512 72.7822 30.2239 72.5231 30.3412 72.2379C30.4586 71.9526 30.5182 71.6469 30.5166 71.3385C30.5151 71.0301 30.4524 70.725 30.3322 70.441C30.212 70.1569 30.0367 69.8995 29.8164 69.6836" stroke="white" stroke-width="1.33333" stroke-linecap="round" stroke-linejoin="round"/>
<defs>
<linearGradient id="paint0_linear_223_2" x1="55.5" y1="27" x2="55.5" y2="69" gradientUnits="userSpaceOnUse">
<stop stop-color="white"/>
<stop offset="1" stop-color="white" stop-opacity="0"/>
</linearGradient>
</defs>
</svg>
