<svg width="742" height="192" viewBox="0 0 742 192" fill="none" xmlns="http://www.w3.org/2000/svg">
<path d="M261.069 73.1895H243.274L264.776 139.511H283.931L305.433 73.1895H287.638L274.173 123.148L261.069 73.1895Z" fill="black"/>
<path d="M12.8076 51H31.2206V139.512H12.8076V51Z" fill="black"/>
<path d="M49.3867 51H67.7997V139.512H49.3867V51Z" fill="black"/>
<path d="M85.9626 51H140.46V65.752H104.376V86.826H137.989V101.579H104.376V124.76H140.46V139.512H85.9626V51Z" fill="black"/>
<path d="M151.704 51H169.128V139.512H151.704V51Z" fill="black"/>
<path d="M179.632 106.288C179.632 82.1152 191.619 71.7012 210.279 71.7012C228.939 71.7012 239.567 81.9912 239.567 106.536V110.503H196.809C197.427 124.883 201.752 129.718 210.032 129.718C216.581 129.718 220.659 125.875 221.401 119.181H238.825C237.713 133.809 225.603 140.999 210.032 140.999C190.26 140.999 179.632 130.462 179.632 106.288ZM222.39 98.9742C221.525 86.8252 217.323 82.8592 210.032 82.8592C202.741 82.8592 198.168 86.9492 196.933 98.9742H222.39Z" fill="black"/>
<path d="M308.77 106.288C308.77 82.1152 320.757 71.7012 339.417 71.7012C358.077 71.7012 368.705 81.9912 368.705 106.536V110.503H325.947C326.565 124.883 330.89 129.718 339.17 129.718C345.719 129.718 349.797 125.875 350.539 119.181H367.963C366.851 133.809 354.74 140.999 339.17 140.999C319.397 140.999 308.77 130.462 308.77 106.288ZM351.527 98.9742C350.662 86.8252 346.461 82.8592 339.17 82.8592C331.879 82.8592 327.306 86.9492 326.071 98.9742H351.527Z" fill="black"/>
<path d="M451.25 51H469.664V124.76H504.264V139.512H451.25V51Z" fill="black"/>
<path fill-rule="evenodd" clip-rule="evenodd" d="M508.591 106.288C508.591 80.9992 520.207 71.7012 535.16 71.7012C542.574 71.7012 549.371 75.9162 552.09 80.3792V73.1892H569.885V139.511H552.584V131.701C549.989 136.908 542.698 140.999 534.665 140.999C518.848 140.999 508.591 130.834 508.591 106.288ZM539.732 84.7182C548.382 84.7182 553.078 91.2882 553.078 106.288C553.078 121.288 548.382 127.982 539.732 127.982C531.082 127.982 526.139 121.288 526.139 106.288C526.139 91.2882 531.082 84.7182 539.732 84.7182Z" fill="black"/>
<path fill-rule="evenodd" clip-rule="evenodd" d="M600.654 131.702V139.512H583.354V51H600.779V80.38C603.745 75.793 610.664 71.702 618.079 71.702C632.661 71.702 644.277 81 644.277 106.289C644.277 131.579 632.908 141 617.708 141C609.676 141 603.126 136.909 600.654 131.702ZM613.136 84.843C621.786 84.843 626.729 91.289 626.729 106.289C626.729 121.289 621.786 127.983 613.136 127.983C604.485 127.983 599.789 121.289 599.789 106.289C599.789 91.289 604.485 84.843 613.136 84.843Z" fill="black"/>
<path d="M651.446 119.801H668.87C669.117 126.743 672.824 130.09 679.374 130.09C685.923 130.09 689.631 127.115 689.631 121.908C689.631 117.197 686.789 115.462 680.61 113.974L675.296 112.611C660.22 108.768 652.681 104.677 652.681 92.1562C652.681 79.6352 664.298 71.7012 679.127 71.7012C693.956 71.7012 705.201 77.5282 705.696 91.2882H688.271C687.901 85.2142 684.193 82.6112 678.88 82.6112C673.566 82.6112 669.859 85.2142 669.859 90.1732C669.859 94.7592 672.824 96.4952 678.015 97.7352L683.452 99.0982C697.787 102.693 706.808 106.288 706.808 119.677C706.808 133.065 694.945 140.999 678.88 140.999C661.455 140.999 651.816 134.429 651.446 119.801Z" fill="black"/>
<path d="M396.879 100.462C396.879 90.0492 401.822 84.3462 409.484 84.3462C415.786 84.3462 419.37 88.3132 419.37 96.8672V139.511H436.794V94.1392C436.794 78.7682 428.144 71.7012 415.539 71.7012C407.012 71.7012 399.969 76.0402 396.879 81.7432V73.1892H379.208V139.511H396.879V100.462Z" fill="black"/>
</svg>
